<?xml version="1.0" encoding="utf-8"?>
<!-- Generator: Adobe Illustrator 25.0.1, SVG Export Plug-In . SVG Version: 6.00 Build 0)  -->
<svg version="1.1" id="Capa_1" xmlns="http://www.w3.org/2000/svg" xmlns:xlink="http://www.w3.org/1999/xlink" x="0px" y="0px"
	 viewBox="0 0 512 512" style="enable-background:new 0 0 512 512;" xml:space="preserve">
<style type="text/css">
	.st0{fill:#FFFFFF;stroke:#FFFFFF;stroke-width:3;stroke-miterlimit:10;}
</style>
<path class="st0" d="M97.7,292.6c-4.1,0-7.5,3.4-7.5,7.5v9.6c0,4.1,3.4,7.5,7.5,7.5s7.5-3.4,7.5-7.5v-9.6
	C105.2,296,101.8,292.6,97.7,292.6z M486,144.1c-2.2-10.8-6.4-21.9-12.5-32.7c-2.1-3.6-6.6-4.9-10.2-2.8s-4.9,6.6-2.8,10.2
	c8.4,14.7,12.8,30.7,12.1,43.8c0,0.9-0.5,1.3-0.9,1.6c-0.1,0-0.1,0.1-0.2,0.1c-0.4,0.2-1,0.3-1.6-0.1c-15.6-8.9-32.2-28.4-37-34.1
	c-1.9-2.3-4.9-3.3-7.8-2.5s-5,3.2-5.4,6.1c-0.7,4.5-1.8,9.7-3.3,15c-16.4-3.9-41.9-17-54.3-31.2c-1.4-1.6-3.5-2.6-5.6-2.6
	c-2.2,0-4.2,0.9-5.6,2.6c-12.5,14.2-37.9,27.3-54.3,31.2c-1.5-5.3-2.6-10.5-3.3-15c-0.4-2.9-2.6-5.3-5.4-6.1
	c-2.9-0.8-5.9,0.2-7.8,2.5c-4.7,5.7-21.4,25.2-37,34.1c-0.6,0.4-1.2,0.3-1.6,0.1c-0.1-0.1-0.2-0.1-0.3-0.2c-0.5-0.3-0.8-0.7-0.8-1.3
	c-0.2-3.7,0-7.6,0.5-11.5c0.1-0.4,0.1-0.7,0.2-1.1c3.2-21.1,16.5-44.3,35.1-60.1c15.7-13.3,42.1-27.4,78.8-19.2
	c1.1,0.2,2.2,0.2,3.3,0c30.3-6.8,59.5,1.1,82.2,22.2c3,2.8,7.8,2.6,10.6-0.4c2.8-3,2.6-7.8-0.4-10.6c-26.1-24.2-59.5-33.5-94.1-26.2
	c-32.7-6.9-64.7,1.2-90.1,22.7c-20.4,17.2-34.9,41.8-39.6,65.3c-11.6,4.8-20.4,14.6-24.1,26.3c-12.3-4-25.7-6.4-40.1-7
	c-0.3-1.2-0.6-2.3-1-3.4c-4.6-12.6-17.6-20.4-34.2-22.1C116.1,114.6,96,92.2,73.1,77.1C57.3,67,36.2,71.4,25.8,87L7.7,114.2
	C3,121.3,1.8,130,4.5,138.1c2.7,8.1,8.8,14.3,16.8,17.2c11.6,4.1,21.5,9.4,29.6,15.7c-7.3,10.5-9.4,21.6-5.8,31.4c1,2.6,2.3,5,4,7.3
	c-13.1,15.2-21.7,32.8-25.4,50.6C9.4,267.3,0,282,0,298.1c0,21.2,16,38.9,36.5,41.8c7.2,19.7,19.2,37.2,34.8,50.9
	c-12,14.2-20.2,31.1-23.8,49.3c-1.4,7.2,0.4,14.6,5.1,20.3c4.7,5.7,11.6,9,19.1,9h7.9c4.1,0,7.5-3.4,7.5-7.5s-3.4-7.5-7.5-7.5h-7.9
	c-2.9,0-5.6-1.3-7.5-3.5c-1.8-2.2-2.5-5-2-7.8c3.2-15.9,10.4-30.7,21-43c20.5,14.2,45.6,22.5,72.5,22.5c27,0,52-8.3,72.5-22.5
	c10.6,12.4,17.8,27.1,21,43c0.6,2.8-0.2,5.6-2,7.8c-1.8,2.2-4.6,3.5-7.5,3.5H114.4c-4.1,0-7.5,3.4-7.5,7.5s3.4,7.5,7.5,7.5h125.4
	c7.4,0,14.4-3.3,19.1-9c4.7-5.7,6.5-13.1,5.1-20.3c-3.7-18.2-11.8-35.1-23.8-49.3c11.9-10.5,21.7-23.1,28.9-37.3
	c1,0.5,2.1,0.8,3.3,0.8h168.1c7.4,0,14.4-3.3,19.1-9s6.5-13.1,5.1-20.3c-3.7-18.2-11.8-35.1-23.8-49.3
	c15.5-13.7,27.6-31.2,34.8-50.9C496,221.9,512,204.2,512,183C512,165.9,501.5,150.6,486,144.1L486,144.1z M15,298.1
	c0-7.2,2.9-14,7.8-18.9c0.9,3.3,2.7,6.3,5.2,8.7c0.5,0.5,1.1,1,1.6,1.4c-0.2,2.9-0.3,5.9-0.3,8.8c0,8.6,0.9,17,2.6,25
	C21.9,319,15,309.3,15,298.1L15,298.1z M225.1,162.5c0,0.4,0,0.8,0,1.2c0.2,4.2,2,8.1,5,11c-0.2,2.6-0.3,5.3-0.3,7.9
	c-4.2-2.5-8.6-4.7-13.2-6.8C218.1,170.6,221,166,225.1,162.5L225.1,162.5z M146.7,163.5c-35.8,2-65.4,15.6-86.8,35.1
	c-0.2-0.4-0.4-0.9-0.6-1.4c-2.8-7.7,2.4-15.9,5.8-20.1c0.5-0.7,1.1-1.3,1.7-2l0,0c0,0,0,0,0.1-0.1c6.7-7.4,16.4-13.6,27.7-17.8
	C117.1,149.1,140.6,152.1,146.7,163.5z M26.3,141.1c-3.6-1.3-6.4-4.1-7.6-7.8s-0.7-7.6,1.5-10.9l18.1-27.2
	C44.1,86.4,56,84,64.7,89.7c18.3,12.1,35.1,29.9,45.7,48.3c-6.8,0.8-13.8,2.5-20.9,5.1c-10.9,4-20.7,9.7-28.5,16.6
	C51.4,152.1,39.8,145.8,26.3,141.1z M155.7,407.6c-61.5,0-111.5-49.1-111.5-109.5c0-1.5,0-3.1,0.1-4.7c41.7-3.8,88.5-30,108.3-45.8
	c1.8-1.4,4.3-1.4,6.1,0c19.8,15.7,66.6,41.9,108.3,45.8c0.1,1.6,0.1,3.1,0.1,4.7C267.2,358.5,217.1,407.6,155.7,407.6z M272.9,277.2
	c-0.6,0.6-1.8,1.5-3.7,1.4c-36.6-3.1-81.2-26.8-101.1-42.7c-3.6-2.9-8-4.4-12.4-4.4s-8.7,1.4-12.4,4.4
	c-19.9,15.9-64.5,39.6-101.1,42.7c-1.9,0.2-3.1-0.8-3.7-1.4c-0.6-0.6-1.6-1.8-1.4-3.7c0.2-2.3,0.4-4.6,0.8-6.8l0,0
	c2.9-18.2,12-36.3,26.2-51.3c0.4-0.4,0.8-0.8,1.2-1.2c0,0,0-0.1,0.1-0.1c20.7-21,51.8-35.7,90.3-35.7c18.1,0,34.6,3.2,49.1,8.9
	c0.5,0.2,1,0.4,1.5,0.6c9.9,4,18.8,9.1,26.8,15c0.4,0.4,0.9,0.8,1.5,1.1c21.7,16.7,35.4,39.7,39.1,62.9l0,0c0.4,2.3,0.6,4.6,0.8,6.8
	C274.5,275.4,273.5,276.7,272.9,277.2L272.9,277.2z M449.8,327.9c0.6,2.8-0.2,5.6-2,7.8c-1.8,2.2-4.6,3.5-7.5,3.5h-162
	c18.5-4.2,32.4-20.5,33-39.9c14.3,5.4,29.4,8.1,45,8.1c27,0,52-8.3,72.5-22.5C439.4,297.3,446.6,312,449.8,327.9L449.8,327.9z
	 M281.8,289.4c0.6-0.4,1.1-0.9,1.6-1.4c2.5-2.4,4.2-5.5,5.2-8.7c4.9,5,7.8,11.7,7.8,18.9c0,11.2-6.9,20.9-16.8,25
	c1.7-8.1,2.6-16.5,2.6-25C282.2,295.2,282,292.3,281.8,289.4z M356.3,292.5c-17,0-33.2-3.6-48.4-10.8c-3.9-9.2-11.1-16.9-20.3-21.4
	c-5-24.7-19.7-48.9-42.3-67c-0.3-3.4-0.5-6.9-0.5-10.3c0-1.3,0-2.5,0.1-3.8c1.9-0.3,3.7-1,5.4-2c11.4-6.5,22.8-17.3,31.1-26.2
	c0.2,0.6,0.3,1.2,0.5,1.8c2.2,7.8,10.1,12.4,17.9,10.5c16.7-4,40.7-15.5,56.5-30.1c15.8,14.6,39.8,26.1,56.5,30.1
	c7.8,1.9,15.7-2.7,17.9-10.5c0.2-0.6,0.3-1.2,0.5-1.8c8.3,8.9,19.7,19.7,31.1,26.2c1.7,1,3.5,1.6,5.4,2c0,1.3,0.1,2.5,0.1,3.8
	C467.8,243.4,417.8,292.5,356.3,292.5L356.3,292.5z M480.2,208c1.7-8.1,2.6-16.5,2.6-25c0-2.8-0.1-5.6-0.3-8.4c3-2.9,4.8-6.9,5-11.2
	c0-0.3,0-0.6,0-0.9c5.8,5.1,9.5,12.5,9.5,20.5C497,194.2,490.1,203.9,480.2,208L480.2,208z M414.3,177.5c-4.1,0-7.5,3.4-7.5,7.5v9.6
	c0,4.1,3.4,7.5,7.5,7.5s7.5-3.4,7.5-7.5V185C421.8,180.8,418.5,177.5,414.3,177.5z M376.5,189.4c-3.1-2.7-7.9-2.4-10.6,0.7
	c-2.4,2.8-5.9,4.4-9.6,4.4s-7.2-1.6-9.6-4.4c-2.7-3.1-7.5-3.4-10.6-0.7s-3.4,7.5-0.7,10.6c5.3,6.1,12.9,9.5,20.9,9.5
	s15.7-3.5,20.9-9.5C380,196.8,379.7,192.1,376.5,189.4L376.5,189.4z M175.9,304.5c-3.1-2.7-7.9-2.4-10.6,0.7
	c-2.4,2.8-5.9,4.4-9.6,4.4c-3.7,0-7.2-1.6-9.6-4.4c-2.7-3.1-7.5-3.4-10.6-0.7c-3.1,2.7-3.4,7.5-0.7,10.6c5.3,6.1,12.9,9.5,20.9,9.5
	s15.7-3.5,20.9-9.5C179.4,312,179,307.2,175.9,304.5L175.9,304.5z M298.3,177.5c-4.1,0-7.5,3.4-7.5,7.5v9.6c0,4.1,3.4,7.5,7.5,7.5
	s7.5-3.4,7.5-7.5V185C305.8,180.8,302.5,177.5,298.3,177.5z M213.7,292.6c-4.1,0-7.5,3.4-7.5,7.5v9.6c0,4.1,3.4,7.5,7.5,7.5
	s7.5-3.4,7.5-7.5v-9.6C221.2,296,217.8,292.6,213.7,292.6z"/>
</svg>
