<?xml version="1.0" encoding="utf-8"?>
<!-- Generator: Adobe Illustrator 25.0.1, SVG Export Plug-In . SVG Version: 6.00 Build 0)  -->
<svg version="1.1" id="Layer_1" xmlns="http://www.w3.org/2000/svg" xmlns:xlink="http://www.w3.org/1999/xlink" x="0px" y="0px"
	 viewBox="0 0 512 512" style="enable-background:new 0 0 512 512;" xml:space="preserve">
<style type="text/css">
	.st0{fill:#FFFFFF;}
</style>
<g>
	<path class="st0" d="M244,354.2c-7.6,0-13.8-6.2-13.8-13.8c0-18,2.6-33.6,7.7-46.7c3.7-9.9,9.8-19.8,18.2-29.9
		c6.1-7.3,17.2-18,33.1-32.1c15.9-14.1,26.3-25.2,31.1-33.6c4.8-8.3,7.1-17.5,7.1-27.3c0-17.9-7-33.6-20.9-47.1
		s-31.1-20.3-51.4-20.3c-19.6,0-35.9,6.1-49,18.4c-9.6,9-16.8,21.6-21.5,37.9c-3.3,11.2-14.2,18.4-25.8,17
		c-14.7-1.7-24.4-16.3-20.2-30.5c6.5-21.8,17.3-39.4,32.4-52.8c21-18.6,48.8-27.9,83.4-27.9c36.6,0,65.8,10,87.6,29.9
		s32.7,44,32.7,72.3c0,16.4-3.8,31.4-11.5,45.2c-7.7,13.8-22.7,30.6-45,50.3c-15,13.3-24.8,23.1-29.4,29.4
		c-4.6,6.3-8,13.5-10.2,21.7c-1.6,6.1-2.8,15-3.4,26.7c-0.4,7.4-6.5,13.2-13.9,13.2L244,354.2L244,354.2z M227.7,420.3
		c0-14.5,11.7-26.2,26.2-26.2c14.5,0,26.2,11.7,26.2,26.2s-11.7,26.2-26.2,26.2C239.4,446.5,227.7,434.7,227.7,420.3L227.7,420.3z"
		/>
</g>
</svg>
